<svg width="60" height="60" viewBox="0 0 60 60" fill="none" xmlns="http://www.w3.org/2000/svg">
<rect width="60" height="60" rx="4" fill="#82B3D3"/>
<path d="M28.6008 34.4438C29.4274 34.4438 30.0541 34.2238 30.4808 33.7838C30.9208 33.3438 31.1408 32.8104 31.1408 32.1838C31.1408 31.4238 30.9141 30.8638 30.4608 30.5038C30.0074 30.1438 29.2941 29.9638 28.3208 29.9638H26.8808V28.5838L29.3008 25.2838L30.4408 24.3838L28.8608 24.5638H25.5008V22.3638H33.1408V23.7838L30.3208 27.5638L29.4408 28.1038V28.2038L30.2808 28.0838C30.7474 28.1238 31.1874 28.2304 31.6008 28.4038C32.0274 28.5771 32.3941 28.8304 32.7008 29.1638C33.0208 29.4838 33.2741 29.8838 33.4608 30.3638C33.6474 30.8438 33.7408 31.3971 33.7408 32.0238C33.7408 32.8104 33.6074 33.4904 33.3408 34.0638C33.0874 34.6371 32.7274 35.1171 32.2608 35.5038C31.8074 35.8904 31.2741 36.1771 30.6608 36.3638C30.0474 36.5504 29.3874 36.6438 28.6808 36.6438C28.0941 36.6438 27.4874 36.5904 26.8608 36.4838C26.2341 36.3771 25.7274 36.2238 25.3408 36.0238L26.0408 33.8638C26.3874 34.0371 26.7674 34.1771 27.1808 34.2838C27.6074 34.3904 28.0808 34.4438 28.6008 34.4438Z" fill="white"/>
</svg>
