<svg width="60" height="60" viewBox="0 0 60 60" fill="none" xmlns="http://www.w3.org/2000/svg">
<rect width="60" height="60" rx="4" fill="#82B3D3"/>
<path d="M20.6269 34.1638H23.4069V26.2638L23.7069 24.9038L22.7469 26.0838L20.9669 27.3038L19.8669 25.8038L24.4269 22.1238H25.8869V34.1638H28.6069V36.3638H20.6269V34.1638ZM30.7546 29.3438C30.7546 26.8904 31.1746 25.0704 32.0146 23.8838C32.8546 22.6838 34.0613 22.0838 35.6346 22.0838C37.3146 22.0838 38.5479 22.6771 39.3346 23.8638C40.1213 25.0371 40.5146 26.8638 40.5146 29.3438C40.5146 31.8104 40.0879 33.6438 39.2346 34.8438C38.3946 36.0438 37.1879 36.6438 35.6146 36.6438C33.9479 36.6438 32.7213 36.0171 31.9346 34.7638C31.1479 33.4971 30.7546 31.6904 30.7546 29.3438ZM33.3546 29.3438C33.3546 30.9704 33.5279 32.2304 33.8746 33.1238C34.2346 34.0038 34.8213 34.4438 35.6346 34.4438C36.4213 34.4438 36.9946 34.0371 37.3546 33.2238C37.7279 32.4104 37.9146 31.1171 37.9146 29.3438C37.9146 27.7304 37.7413 26.4838 37.3946 25.6038C37.0479 24.7238 36.4546 24.2838 35.6146 24.2838C34.8146 24.2838 34.2346 24.6971 33.8746 25.5238C33.5279 26.3504 33.3546 27.6238 33.3546 29.3438Z" fill="white"/>
</svg>
