<svg width="60" height="60" fill="none" xmlns="http://www.w3.org/2000/svg"><rect width="60" height="60" rx="4" fill="#82B3D3"/><path d="M20.6 34.2h2.8v-8l.3-1.3-1 1.2-1.7 1.2-1.1-1.5 4.5-3.7H26v12h2.7v2.3h-8v-2.2Zm10.2-4.9c0-2.4.4-4.2 1.2-5.4.9-1.2 2-1.8 3.6-1.8 1.7 0 3 .6 3.7 1.8a10 10 0 0 1 1.2 5.4c0 2.5-.4 4.3-1.3 5.5-.8 1.2-2 1.8-3.6 1.8-1.7 0-2.9-.6-3.7-1.8-.8-1.3-1.1-3.1-1.1-5.5Zm2.6 0c0 1.7.1 3 .5 3.8.3.9 1 1.3 1.7 1.3.8 0 1.4-.4 1.8-1.2.3-.8.5-2 .5-3.9 0-1.6-.2-2.8-.5-3.7-.4-.9-1-1.3-1.8-1.3s-1.4.4-1.7 1.2c-.4.9-.5 2.1-.5 3.8Z" fill="#fff"/></svg>